<mxfile host="65bd71144e" pages="2">
    <diagram id="diagramid" name="Diagram">
        <mxGraphModel dx="1534" dy="469" grid="0" gridSize="10" guides="0" tooltips="1" connect="0" arrows="1" fold="1" page="1" pageScale="1" pageWidth="827" pageHeight="1169" background="none" math="0" shadow="0">
            <root>
                <mxCell id="0"/>
                <mxCell id="1" parent="0"/>
                <mxCell id="4" value="DBSNSTopic" style="outlineConnect=0;fontColor=#B3B3B3;gradientColor=#F34482;gradientDirection=north;fillColor=#BC1356;strokeColor=#ffffff;dashed=0;verticalLabelPosition=bottom;verticalAlign=top;align=center;html=1;fontSize=12;fontStyle=0;aspect=fixed;shape=mxgraph.aws4.resourceIcon;resIcon=mxgraph.aws4.sns;rounded=0;" parent="1" vertex="1">
                    <mxGeometry x="281" y="176" width="50" height="50" as="geometry"/>
                </mxCell>
                <mxCell id="12" value="AuroraMasterSecret" style="outlineConnect=0;fontColor=#B3B3B3;gradientColor=#F54749;gradientDirection=north;fillColor=#C7131F;strokeColor=#ffffff;dashed=0;verticalLabelPosition=bottom;verticalAlign=top;align=center;html=1;fontSize=12;fontStyle=0;aspect=fixed;shape=mxgraph.aws4.resourceIcon;resIcon=mxgraph.aws4.secretsmanager;rounded=0;" parent="1" vertex="1">
                    <mxGeometry x="750" y="325" width="50" height="50" as="geometry"/>
                </mxCell>
                <mxCell id="16" value="CreateSecretRotationLambdaFn" style="outlineConnect=0;fontColor=#B3B3B3;gradientColor=#F78E04;gradientDirection=north;fillColor=#D05C17;strokeColor=#ffffff;dashed=0;verticalLabelPosition=bottom;verticalAlign=top;align=center;html=1;fontSize=12;fontStyle=0;aspect=fixed;shape=mxgraph.aws4.resourceIcon;resIcon=mxgraph.aws4.lambda;rounded=0;" parent="1" vertex="1">
                    <mxGeometry x="521" y="530" width="50" height="50" as="geometry"/>
                </mxCell>
                <mxCell id="19" value="AuroraDBCluster" style="outlineConnect=0;fontColor=#B3B3B3;gradientColor=#4D72F3;gradientDirection=north;fillColor=#3334B9;strokeColor=#ffffff;dashed=0;verticalLabelPosition=bottom;verticalAlign=top;align=center;html=1;fontSize=12;fontStyle=0;aspect=fixed;shape=mxgraph.aws4.resourceIcon;resIcon=mxgraph.aws4.rds;rounded=0;" parent="1" vertex="1">
                    <mxGeometry x="500" y="225" width="50" height="50" as="geometry"/>
                </mxCell>
                <mxCell id="20" value="AuroraDBFirstInstance" style="outlineConnect=0;fontColor=#B3B3B3;gradientColor=#4D72F3;gradientDirection=north;fillColor=#3334B9;strokeColor=#ffffff;dashed=0;verticalLabelPosition=bottom;verticalAlign=top;align=center;html=1;fontSize=12;fontStyle=0;aspect=fixed;shape=mxgraph.aws4.resourceIcon;resIcon=mxgraph.aws4.rds;rounded=0;" parent="1" vertex="1">
                    <mxGeometry x="250" y="75" width="50" height="50" as="geometry"/>
                </mxCell>
                <mxCell id="21" value="AuroraDBSecondInstance" style="outlineConnect=0;fontColor=#B3B3B3;gradientColor=#4D72F3;gradientDirection=north;fillColor=#3334B9;strokeColor=#ffffff;dashed=0;verticalLabelPosition=bottom;verticalAlign=top;align=center;html=1;fontSize=12;fontStyle=0;aspect=fixed;shape=mxgraph.aws4.resourceIcon;resIcon=mxgraph.aws4.rds;rounded=0;" parent="1" vertex="1">
                    <mxGeometry x="250" y="275" width="50" height="50" as="geometry"/>
                </mxCell>
                <mxCell id="22" value="CPUUtilizationAlarm1" style="outlineConnect=0;fontColor=#B3B3B3;gradientColor=#F34482;gradientDirection=north;fillColor=#BC1356;strokeColor=#ffffff;dashed=0;verticalLabelPosition=bottom;verticalAlign=top;align=center;html=1;fontSize=12;fontStyle=0;aspect=fixed;shape=mxgraph.aws4.resourceIcon;resIcon=mxgraph.aws4.cloudwatch;rounded=0;" parent="1" vertex="1">
                    <mxGeometry x="-2" y="11" width="50" height="50" as="geometry"/>
                </mxCell>
                <mxCell id="23" value="CPUUtilizationAlarm2" style="outlineConnect=0;fontColor=#B3B3B3;gradientColor=#F34482;gradientDirection=north;fillColor=#BC1356;strokeColor=#ffffff;dashed=0;verticalLabelPosition=bottom;verticalAlign=top;align=center;html=1;fontSize=12;fontStyle=0;aspect=fixed;shape=mxgraph.aws4.resourceIcon;resIcon=mxgraph.aws4.cloudwatch;rounded=0;" parent="1" vertex="1">
                    <mxGeometry y="300" width="50" height="50" as="geometry"/>
                </mxCell>
                <mxCell id="24" value="MaxUsedTxIDsAlarm1" style="outlineConnect=0;fontColor=#B3B3B3;gradientColor=#F34482;gradientDirection=north;fillColor=#BC1356;strokeColor=#ffffff;dashed=0;verticalLabelPosition=bottom;verticalAlign=top;align=center;html=1;fontSize=12;fontStyle=0;aspect=fixed;shape=mxgraph.aws4.resourceIcon;resIcon=mxgraph.aws4.cloudwatch;rounded=0;" parent="1" vertex="1">
                    <mxGeometry y="100" width="50" height="50" as="geometry"/>
                </mxCell>
                <mxCell id="25" value="MaxUsedTxIDsAlarm2" style="outlineConnect=0;fontColor=#B3B3B3;gradientColor=#F34482;gradientDirection=north;fillColor=#BC1356;strokeColor=#ffffff;dashed=0;verticalLabelPosition=bottom;verticalAlign=top;align=center;html=1;fontSize=12;fontStyle=0;aspect=fixed;shape=mxgraph.aws4.resourceIcon;resIcon=mxgraph.aws4.cloudwatch;rounded=0;" parent="1" vertex="1">
                    <mxGeometry y="400" width="50" height="50" as="geometry"/>
                </mxCell>
                <mxCell id="26" value="FreeLocalStorageAlarm1" style="outlineConnect=0;fontColor=#B3B3B3;gradientColor=#F34482;gradientDirection=north;fillColor=#BC1356;strokeColor=#ffffff;dashed=0;verticalLabelPosition=bottom;verticalAlign=top;align=center;html=1;fontSize=12;fontStyle=0;aspect=fixed;shape=mxgraph.aws4.resourceIcon;resIcon=mxgraph.aws4.cloudwatch;rounded=0;" parent="1" vertex="1">
                    <mxGeometry y="200" width="50" height="50" as="geometry"/>
                </mxCell>
                <mxCell id="27" value="FreeLocalStorageAlarm2" style="outlineConnect=0;fontColor=#B3B3B3;gradientColor=#F34482;gradientDirection=north;fillColor=#BC1356;strokeColor=#ffffff;dashed=0;verticalLabelPosition=bottom;verticalAlign=top;align=center;html=1;fontSize=12;fontStyle=0;aspect=fixed;shape=mxgraph.aws4.resourceIcon;resIcon=mxgraph.aws4.cloudwatch;rounded=0;" parent="1" vertex="1">
                    <mxGeometry y="500" width="50" height="50" as="geometry"/>
                </mxCell>
                <mxCell id="31" value="DBBootStrapLambdaFn" style="outlineConnect=0;fontColor=#B3B3B3;gradientColor=#F78E04;gradientDirection=north;fillColor=#D05C17;strokeColor=#ffffff;dashed=0;verticalLabelPosition=bottom;verticalAlign=top;align=center;html=1;fontSize=12;fontStyle=0;aspect=fixed;shape=mxgraph.aws4.resourceIcon;resIcon=mxgraph.aws4.lambda;rounded=0;" parent="1" vertex="1">
                    <mxGeometry x="263" y="650" width="50" height="50" as="geometry"/>
                </mxCell>
                <mxCell id="39" value="lambda  &#10;secretsmanager-secretrotationfn-" style="outlineConnect=0;fontColor=#B3B3B3;gradientColor=#aaaaaa;gradientDirection=north;fillColor=#aaaaaa;strokeColor=#ffffff;dashed=0;verticalLabelPosition=bottom;verticalAlign=top;align=center;html=1;fontSize=12;fontStyle=0;aspect=fixed;shape=mxgraph.aws4.resourceIcon;resIcon=mxgraph.aws4.lambda;rounded=0;" parent="1" vertex="1">
                    <mxGeometry y="850" width="50" height="50" as="geometry"/>
                </mxCell>
                <mxCell id="AuroraMasterSecret|AuroraDBCluster" value="MasterUsername&#10;MasterUserPassword" style="edgeStyle=orthogonalEdgeStyle;rounded=0;orthogonalLoop=1;jettySize=auto;html=1;labelBackgroundColor=none;fontColor=#EA6B66;noEdgeStyle=1;orthogonal=1;" parent="1" source="19" target="12" edge="1">
                    <mxGeometry relative="1" as="geometry">
                        <Array as="points">
                            <mxPoint x="562" y="250"/>
                            <mxPoint x="738" y="335"/>
                        </Array>
                    </mxGeometry>
                </mxCell>
                <mxCell id="AuroraDBCluster|AuroraDBFirstInstance" value="DBClusterIdentifier" style="edgeStyle=orthogonalEdgeStyle;rounded=0;orthogonalLoop=1;jettySize=auto;html=1;labelBackgroundColor=none;fontColor=#EA6B66;noEdgeStyle=1;orthogonal=1;" parent="1" source="20" target="19" edge="1">
                    <mxGeometry relative="1" as="geometry">
                        <Array as="points">
                            <mxPoint x="312" y="100"/>
                            <mxPoint x="488" y="235"/>
                        </Array>
                    </mxGeometry>
                </mxCell>
                <mxCell id="AuroraDBCluster|AuroraDBSecondInstance" value="DBClusterIdentifier" style="edgeStyle=orthogonalEdgeStyle;rounded=0;orthogonalLoop=1;jettySize=auto;html=1;labelBackgroundColor=none;fontColor=#EA6B66;noEdgeStyle=1;orthogonal=1;" parent="1" source="21" target="19" edge="1">
                    <mxGeometry relative="1" as="geometry">
                        <Array as="points">
                            <mxPoint x="312" y="300"/>
                            <mxPoint x="486" y="245"/>
                        </Array>
                    </mxGeometry>
                </mxCell>
                <mxCell id="DBSNSTopic|CPUUtilizationAlarm1" value="AlarmActions" style="edgeStyle=orthogonalEdgeStyle;rounded=0;orthogonalLoop=1;jettySize=auto;html=1;labelBackgroundColor=none;fontColor=#EA6B66;noEdgeStyle=1;orthogonal=1;" parent="1" source="22" target="4" edge="1">
                    <mxGeometry relative="1" as="geometry">
                        <Array as="points">
                            <mxPoint x="62" y="35"/>
                            <mxPoint x="238" y="183.33333333333334"/>
                        </Array>
                    </mxGeometry>
                </mxCell>
                <mxCell id="AuroraDBFirstInstance|CPUUtilizationAlarm1" value="Value" style="edgeStyle=orthogonalEdgeStyle;rounded=0;orthogonalLoop=1;jettySize=auto;html=1;labelBackgroundColor=none;fontColor=#EA6B66;noEdgeStyle=1;orthogonal=1;" parent="1" source="22" target="20" edge="1">
                    <mxGeometry relative="1" as="geometry">
                        <Array as="points">
                            <mxPoint x="62" y="15"/>
                            <mxPoint x="238" y="86.66666666666667"/>
                        </Array>
                    </mxGeometry>
                </mxCell>
                <mxCell id="DBSNSTopic|CPUUtilizationAlarm2" value="AlarmActions" style="edgeStyle=orthogonalEdgeStyle;rounded=0;orthogonalLoop=1;jettySize=auto;html=1;labelBackgroundColor=none;fontColor=#EA6B66;noEdgeStyle=1;orthogonal=1;" parent="1" source="23" target="4" edge="1">
                    <mxGeometry relative="1" as="geometry">
                        <Array as="points">
                            <mxPoint x="62" y="315"/>
                            <mxPoint x="234" y="203.33333333333331"/>
                        </Array>
                    </mxGeometry>
                </mxCell>
                <mxCell id="AuroraDBSecondInstance|CPUUtilizationAlarm2" value="Value" style="edgeStyle=orthogonalEdgeStyle;rounded=0;orthogonalLoop=1;jettySize=auto;html=1;labelBackgroundColor=none;fontColor=#EA6B66;noEdgeStyle=1;orthogonal=1;" parent="1" source="23" target="21" edge="1">
                    <mxGeometry relative="1" as="geometry">
                        <Array as="points">
                            <mxPoint x="62" y="335"/>
                            <mxPoint x="238" y="286.6666666666667"/>
                        </Array>
                    </mxGeometry>
                </mxCell>
                <mxCell id="DBSNSTopic|MaxUsedTxIDsAlarm1" value="AlarmActions" style="edgeStyle=orthogonalEdgeStyle;rounded=0;orthogonalLoop=1;jettySize=auto;html=1;labelBackgroundColor=none;fontColor=#EA6B66;noEdgeStyle=1;orthogonal=1;" parent="1" source="24" target="4" edge="1">
                    <mxGeometry relative="1" as="geometry">
                        <Array as="points">
                            <mxPoint x="62" y="135"/>
                            <mxPoint x="236" y="190"/>
                        </Array>
                    </mxGeometry>
                </mxCell>
                <mxCell id="AuroraDBFirstInstance|MaxUsedTxIDsAlarm1" value="Value" style="edgeStyle=orthogonalEdgeStyle;rounded=0;orthogonalLoop=1;jettySize=auto;html=1;labelBackgroundColor=none;fontColor=#EA6B66;noEdgeStyle=1;orthogonal=1;" parent="1" source="24" target="20" edge="1">
                    <mxGeometry relative="1" as="geometry">
                        <Array as="points">
                            <mxPoint x="62" y="115"/>
                            <mxPoint x="236" y="100"/>
                        </Array>
                    </mxGeometry>
                </mxCell>
                <mxCell id="DBSNSTopic|MaxUsedTxIDsAlarm2" value="AlarmActions" style="edgeStyle=orthogonalEdgeStyle;rounded=0;orthogonalLoop=1;jettySize=auto;html=1;labelBackgroundColor=none;fontColor=#EA6B66;noEdgeStyle=1;orthogonal=1;" parent="1" source="25" target="4" edge="1">
                    <mxGeometry relative="1" as="geometry">
                        <Array as="points">
                            <mxPoint x="62" y="415"/>
                            <mxPoint x="236" y="209.99999999999997"/>
                        </Array>
                    </mxGeometry>
                </mxCell>
                <mxCell id="AuroraDBSecondInstance|MaxUsedTxIDsAlarm2" value="Value" style="edgeStyle=orthogonalEdgeStyle;rounded=0;orthogonalLoop=1;jettySize=auto;html=1;labelBackgroundColor=none;fontColor=#EA6B66;noEdgeStyle=1;orthogonal=1;" parent="1" source="25" target="21" edge="1">
                    <mxGeometry relative="1" as="geometry">
                        <Array as="points">
                            <mxPoint x="62" y="435"/>
                            <mxPoint x="236" y="300"/>
                        </Array>
                    </mxGeometry>
                </mxCell>
                <mxCell id="DBSNSTopic|FreeLocalStorageAlarm1" value="AlarmActions" style="edgeStyle=orthogonalEdgeStyle;rounded=0;orthogonalLoop=1;jettySize=auto;html=1;labelBackgroundColor=none;fontColor=#EA6B66;noEdgeStyle=1;orthogonal=1;" parent="1" source="26" target="4" edge="1">
                    <mxGeometry relative="1" as="geometry">
                        <Array as="points">
                            <mxPoint x="62" y="235"/>
                            <mxPoint x="234" y="196.66666666666666"/>
                        </Array>
                    </mxGeometry>
                </mxCell>
                <mxCell id="AuroraDBFirstInstance|FreeLocalStorageAlarm1" value="Value" style="edgeStyle=orthogonalEdgeStyle;rounded=0;orthogonalLoop=1;jettySize=auto;html=1;labelBackgroundColor=none;fontColor=#EA6B66;noEdgeStyle=1;orthogonal=1;" parent="1" source="26" target="20" edge="1">
                    <mxGeometry relative="1" as="geometry">
                        <Array as="points">
                            <mxPoint x="62" y="215"/>
                            <mxPoint x="238" y="113.33333333333333"/>
                        </Array>
                    </mxGeometry>
                </mxCell>
                <mxCell id="DBSNSTopic|FreeLocalStorageAlarm2" value="AlarmActions" style="edgeStyle=orthogonalEdgeStyle;rounded=0;orthogonalLoop=1;jettySize=auto;html=1;labelBackgroundColor=none;fontColor=#EA6B66;noEdgeStyle=1;orthogonal=1;" parent="1" source="27" target="4" edge="1">
                    <mxGeometry relative="1" as="geometry">
                        <Array as="points">
                            <mxPoint x="62" y="515"/>
                            <mxPoint x="238" y="216.66666666666663"/>
                        </Array>
                    </mxGeometry>
                </mxCell>
                <mxCell id="AuroraDBSecondInstance|FreeLocalStorageAlarm2" value="Value" style="edgeStyle=orthogonalEdgeStyle;rounded=0;orthogonalLoop=1;jettySize=auto;html=1;labelBackgroundColor=none;fontColor=#EA6B66;noEdgeStyle=1;orthogonal=1;" parent="1" source="27" target="21" edge="1">
                    <mxGeometry relative="1" as="geometry">
                        <Array as="points">
                            <mxPoint x="62" y="535"/>
                            <mxPoint x="238" y="313.3333333333333"/>
                        </Array>
                    </mxGeometry>
                </mxCell>
                <mxCell id="AuroraMasterSecret|DBBootStrapLambdaFn" value="Variable" style="edgeStyle=orthogonalEdgeStyle;rounded=0;orthogonalLoop=1;jettySize=auto;html=1;labelBackgroundColor=none;fontColor=#EA6B66;noEdgeStyle=1;orthogonal=1;" parent="1" source="31" target="12" edge="1">
                    <mxGeometry relative="1" as="geometry">
                        <Array as="points">
                            <mxPoint x="312" y="660"/>
                            <mxPoint x="400" y="525"/>
                            <mxPoint x="650" y="525"/>
                            <mxPoint x="738" y="365"/>
                        </Array>
                    </mxGeometry>
                </mxCell>
                <mxCell id="AuroraDBCluster|DBBootStrapLambdaFn" value="Variable" style="edgeStyle=orthogonalEdgeStyle;rounded=0;orthogonalLoop=1;jettySize=auto;html=1;labelBackgroundColor=none;fontColor=#EA6B66;noEdgeStyle=1;orthogonal=1;" parent="1" source="31" target="19" edge="1">
                    <mxGeometry relative="1" as="geometry">
                        <Array as="points">
                            <mxPoint x="312" y="640"/>
                            <mxPoint x="488" y="265"/>
                        </Array>
                    </mxGeometry>
                </mxCell>
                <mxCell id="41" value="SecretAuroraClusterAttachment" style="outlineConnect=0;fontColor=#B3B3B3;gradientColor=#F54749;gradientDirection=north;fillColor=#C7131F;strokeColor=#ffffff;dashed=0;verticalLabelPosition=bottom;verticalAlign=top;align=center;html=1;fontSize=12;fontStyle=0;aspect=fixed;shape=mxgraph.aws4.resourceIcon;resIcon=mxgraph.aws4.secretsmanager;rounded=0;" parent="1" vertex="1">
                    <mxGeometry x="250" y="375" width="50" height="50" as="geometry"/>
                </mxCell>
                <mxCell id="42" value="CreateSecretRotationLambdaFnTrigger" style="outlineConnect=0;fontColor=#B3B3B3;gradientColor=#aaaaaa;gradientDirection=north;fillColor=#aaaaaa;strokeColor=#ffffff;dashed=0;verticalLabelPosition=bottom;verticalAlign=top;align=center;html=1;fontSize=12;fontStyle=0;aspect=fixed;shape=mxgraph.aws4.resourceIcon;resIcon=mxgraph.aws4.lambdaapgsecretsmanager;rounded=0;" parent="1" vertex="1">
                    <mxGeometry x="250" y="525" width="50" height="50" as="geometry"/>
                </mxCell>
                <mxCell id="43" value="AuroraSecretRotationSchedule" style="outlineConnect=0;fontColor=#B3B3B3;gradientColor=#F54749;gradientDirection=north;fillColor=#C7131F;strokeColor=#ffffff;dashed=0;verticalLabelPosition=bottom;verticalAlign=top;align=center;html=1;fontSize=12;fontStyle=0;aspect=fixed;shape=mxgraph.aws4.resourceIcon;resIcon=mxgraph.aws4.secretsmanager;rounded=0;" parent="1" vertex="1">
                    <mxGeometry y="600" width="50" height="50" as="geometry"/>
                </mxCell>
                <mxCell id="44" value="DBBootStrapLambdaFnTrigger" style="outlineConnect=0;fontColor=#B3B3B3;gradientColor=#aaaaaa;gradientDirection=north;fillColor=#aaaaaa;strokeColor=#ffffff;dashed=0;verticalLabelPosition=bottom;verticalAlign=top;align=center;html=1;fontSize=12;fontStyle=0;aspect=fixed;shape=mxgraph.aws4.resourceIcon;resIcon=mxgraph.aws4.lambdaapgbootstrap;rounded=0;" parent="1" vertex="1">
                    <mxGeometry y="700" width="50" height="50" as="geometry"/>
                </mxCell>
                <mxCell id="AuroraMasterSecret|SecretAuroraClusterAttachment" value="SecretId" style="edgeStyle=orthogonalEdgeStyle;rounded=0;orthogonalLoop=1;jettySize=auto;html=1;labelBackgroundColor=none;fontColor=#EA6B66;noEdgeStyle=1;orthogonal=1;" parent="1" source="41" target="12" edge="1">
                    <mxGeometry relative="1" as="geometry">
                        <Array as="points">
                            <mxPoint x="312" y="410"/>
                            <mxPoint x="400" y="325"/>
                            <mxPoint x="650" y="325"/>
                            <mxPoint x="736" y="345"/>
                        </Array>
                    </mxGeometry>
                </mxCell>
                <mxCell id="AuroraDBCluster|SecretAuroraClusterAttachment" value="TargetId" style="edgeStyle=orthogonalEdgeStyle;rounded=0;orthogonalLoop=1;jettySize=auto;html=1;labelBackgroundColor=none;fontColor=#EA6B66;noEdgeStyle=1;orthogonal=1;" parent="1" source="41" target="19" edge="1">
                    <mxGeometry relative="1" as="geometry">
                        <Array as="points">
                            <mxPoint x="312" y="390"/>
                            <mxPoint x="486" y="255"/>
                        </Array>
                    </mxGeometry>
                </mxCell>
                <mxCell id="CreateSecretRotationLambdaFn|CreateSecretRotationLambdaFnTrigger" value="ServiceToken" style="edgeStyle=orthogonalEdgeStyle;rounded=0;orthogonalLoop=1;jettySize=auto;html=1;labelBackgroundColor=none;fontColor=#EA6B66;noEdgeStyle=1;orthogonal=1;" parent="1" source="42" target="16" edge="1">
                    <mxGeometry relative="1" as="geometry">
                        <Array as="points">
                            <mxPoint x="312" y="550"/>
                            <mxPoint x="488" y="450"/>
                        </Array>
                    </mxGeometry>
                </mxCell>
                <mxCell id="AuroraMasterSecret|AuroraSecretRotationSchedule" value="SecretId" style="edgeStyle=orthogonalEdgeStyle;rounded=0;orthogonalLoop=1;jettySize=auto;html=1;labelBackgroundColor=none;fontColor=#EA6B66;noEdgeStyle=1;orthogonal=1;" parent="1" source="43" target="12" edge="1">
                    <mxGeometry relative="1" as="geometry">
                        <Array as="points">
                            <mxPoint x="62" y="615"/>
                            <mxPoint x="150" y="475"/>
                            <mxPoint x="400" y="475"/>
                            <mxPoint x="400" y="375"/>
                            <mxPoint x="650" y="375"/>
                            <mxPoint x="736" y="355"/>
                        </Array>
                    </mxGeometry>
                </mxCell>
                <mxCell id="CreateSecretRotationLambdaFnTrigger|AuroraSecretRotationSchedule" value="RotationLambdaARN" style="edgeStyle=orthogonalEdgeStyle;rounded=0;orthogonalLoop=1;jettySize=auto;html=1;labelBackgroundColor=none;fontColor=#EA6B66;noEdgeStyle=1;orthogonal=1;" parent="1" source="43" target="42" edge="1">
                    <mxGeometry relative="1" as="geometry">
                        <Array as="points">
                            <mxPoint x="62" y="635"/>
                            <mxPoint x="238" y="550"/>
                        </Array>
                    </mxGeometry>
                </mxCell>
                <mxCell id="DBBootStrapLambdaFn|DBBootStrapLambdaFnTrigger" value="ServiceToken" style="edgeStyle=orthogonalEdgeStyle;rounded=0;orthogonalLoop=1;jettySize=auto;html=1;labelBackgroundColor=none;fontColor=#EA6B66;noEdgeStyle=1;orthogonal=1;" parent="1" source="44" target="31" edge="1">
                    <mxGeometry relative="1" as="geometry">
                        <Array as="points">
                            <mxPoint x="62" y="725"/>
                            <mxPoint x="238" y="650"/>
                        </Array>
                    </mxGeometry>
                </mxCell>
            </root>
        </mxGraphModel>
    </diagram>
</mxfile>